<svg width="20" height="20" viewBox="0 0 20 20" fill="none" xmlns="http://www.w3.org/2000/svg">
<path d="M2.85732 1.54973e-06C2.54191 -0.000356862 2.22954 0.0614563 1.93804 0.181907C1.64654 0.302358 1.38165 0.479084 1.1585 0.70198C0.935348 0.924877 0.758321 1.18957 0.63754 1.48093C0.516758 1.77229 0.45459 2.0846 0.45459 2.4C0.45459 3.72727 1.53004 4.82727 2.85459 4.82727C4.18095 4.82727 5.25732 3.72727 5.25732 2.40182C5.25756 2.08649 5.19565 1.77421 5.07515 1.48282C4.95465 1.19143 4.7779 0.926641 4.55502 0.703588C4.33213 0.480535 4.06748 0.303589 3.77618 0.182864C3.48488 0.0621393 3.17264 1.45925e-06 2.85732 1.54973e-06ZM14.5773 6.36364C12.56 6.36364 11.4064 7.41818 10.8519 8.46727H10.7937V6.64636H6.81823V20H10.961V13.39C10.961 11.6482 11.0919 9.96455 13.2473 9.96455C15.3719 9.96455 15.4028 11.9509 15.4028 13.5V20H19.5455V12.6655C19.5455 9.07636 18.7737 6.36364 14.5773 6.36364ZM0.78459 6.64546V20H4.93004V6.64546H0.78459Z" fill="#001EBF"/>
</svg>
